<?xml version="1.0" encoding="UTF-8"?> <svg xmlns="http://www.w3.org/2000/svg" width="64" height="88" viewBox="0 0 64 88" fill="none"> <path d="M50.6667 0H13.3333C9.79711 0 6.40573 1.44866 3.90524 4.02728C1.40476 6.60591 0 10.1033 0 13.75V74.25C0 77.8967 1.40476 81.3941 3.90524 83.9727C6.40573 86.5513 9.79711 88 13.3333 88H50.6667C54.2029 88 57.5943 86.5513 60.0948 83.9727C62.5952 81.3941 64 77.8967 64 74.25V13.75C64 10.1033 62.5952 6.60591 60.0948 4.02728C57.5943 1.44866 54.2029 0 50.6667 0ZM18.6667 11H45.3333C47.4551 11 49.4899 11.8692 50.9902 13.4164C52.4905 14.9635 53.3333 17.062 53.3333 19.25V24.75C53.3333 26.938 52.4905 29.0365 50.9902 30.5836C49.4899 32.1308 47.4551 33 45.3333 33H18.6667C16.5449 33 14.5101 32.1308 13.0098 30.5836C11.5095 29.0365 10.6667 26.938 10.6667 24.75V19.25C10.6667 17.062 11.5095 14.9635 13.0098 13.4164C14.5101 11.8692 16.5449 11 18.6667 11ZM21.3333 49.5C21.3333 50.9587 20.7714 52.3576 19.7712 53.3891C18.771 54.4205 17.4145 55 16 55C14.5855 55 13.229 54.4205 12.2288 53.3891C11.2286 52.3576 10.6667 50.9587 10.6667 49.5C10.6667 48.0413 11.2286 46.6424 12.2288 45.6109C13.229 44.5795 14.5855 44 16 44C17.4145 44 18.771 44.5795 19.7712 45.6109C20.7714 46.6424 21.3333 48.0413 21.3333 49.5ZM21.3333 66C21.3333 67.4587 20.7714 68.8576 19.7712 69.8891C18.771 70.9205 17.4145 71.5 16 71.5C14.5855 71.5 13.229 70.9205 12.2288 69.8891C11.2286 68.8576 10.6667 67.4587 10.6667 66C10.6667 64.5413 11.2286 63.1424 12.2288 62.1109C13.229 61.0795 14.5855 60.5 16 60.5C17.4145 60.5 18.771 61.0795 19.7712 62.1109C20.7714 63.1424 21.3333 64.5413 21.3333 66ZM48 55C46.5855 55 45.229 54.4205 44.2288 53.3891C43.2286 52.3576 42.6667 50.9587 42.6667 49.5C42.6667 48.0413 43.2286 46.6424 44.2288 45.6109C45.229 44.5795 46.5855 44 48 44C49.4145 44 50.771 44.5795 51.7712 45.6109C52.7714 46.6424 53.3333 48.0413 53.3333 49.5C53.3333 50.9587 52.7714 52.3576 51.7712 53.3891C50.771 54.4205 49.4145 55 48 55ZM53.3333 66C53.3333 67.4587 52.7714 68.8576 51.7712 69.8891C50.771 70.9205 49.4145 71.5 48 71.5C46.5855 71.5 45.229 70.9205 44.2288 69.8891C43.2286 68.8576 42.6667 67.4587 42.6667 66C42.6667 64.5413 43.2286 63.1424 44.2288 62.1109C45.229 61.0795 46.5855 60.5 48 60.5C49.4145 60.5 50.771 61.0795 51.7712 62.1109C52.7714 63.1424 53.3333 64.5413 53.3333 66ZM32 55C30.5855 55 29.229 54.4205 28.2288 53.3891C27.2286 52.3576 26.6667 50.9587 26.6667 49.5C26.6667 48.0413 27.2286 46.6424 28.2288 45.6109C29.229 44.5795 30.5855 44 32 44C33.4145 44 34.771 44.5795 35.7712 45.6109C36.7714 46.6424 37.3333 48.0413 37.3333 49.5C37.3333 50.9587 36.7714 52.3576 35.7712 53.3891C34.771 54.4205 33.4145 55 32 55ZM37.3333 66C37.3333 67.4587 36.7714 68.8576 35.7712 69.8891C34.771 70.9205 33.4145 71.5 32 71.5C30.5855 71.5 29.229 70.9205 28.2288 69.8891C27.2286 68.8576 26.6667 67.4587 26.6667 66C26.6667 64.5413 27.2286 63.1424 28.2288 62.1109C29.229 61.0795 30.5855 60.5 32 60.5C33.4145 60.5 34.771 61.0795 35.7712 62.1109C36.7714 63.1424 37.3333 64.5413 37.3333 66Z" fill="white"></path> </svg> 