<?xml version="1.0" encoding="UTF-8"?> <svg xmlns="http://www.w3.org/2000/svg" width="87" height="87" viewBox="0 0 87 87" fill="none"> <path d="M7.25 87C7.25 87 0 87 0 79.75C0 72.5 7.25 50.75 43.5 50.75C79.75 50.75 87 72.5 87 79.75C87 87 79.75 87 79.75 87H7.25ZM43.5 43.5C49.2685 43.5 54.8007 41.2085 58.8796 37.1296C62.9585 33.0507 65.25 27.5185 65.25 21.75C65.25 15.9815 62.9585 10.4493 58.8796 6.37043C54.8007 2.29151 49.2685 0 43.5 0C37.7315 0 32.1993 2.29151 28.1204 6.37043C24.0415 10.4493 21.75 15.9815 21.75 21.75C21.75 27.5185 24.0415 33.0507 28.1204 37.1296C32.1993 41.2085 37.7315 43.5 43.5 43.5Z" fill="white"></path> </svg> 